<?xml version="1.0" encoding="UTF-8"?>
<svg version="1.1" xmlns="http://www.w3.org/2000/svg" width="512" height="512">
<path d="M0 0 C2.60445618 2.30469067 5.18711436 4.63001017 7.75390625 6.9765625 C9.52725596 8.57411928 11.31683982 10.08383492 13.1875 11.5625 C16.11578078 14.10034334 18.53780834 16.78529804 21.0390625 19.734375 C22.39273918 21.29838392 23.78654509 22.82823476 25.2109375 24.328125 C37.01571604 36.78235738 46.60748126 51.07352675 55 66 C55.36544922 66.63663574 55.73089844 67.27327148 56.10742188 67.92919922 C71.4072107 94.71708772 79.9802445 124.53208048 84 155 C84.103125 155.76183594 84.20625 156.52367187 84.3125 157.30859375 C91.65859944 219.43560613 72.14722451 282.58549521 33.8125 331.4375 C30.35352358 335.66753991 26.70977684 339.72157942 23.0234375 343.75390625 C21.42588072 345.52725596 19.91616508 347.31683982 18.4375 349.1875 C15.89965666 352.11578078 13.21470196 354.53780834 10.265625 357.0390625 C8.70161608 358.39273918 7.17176524 359.78654509 5.671875 361.2109375 C-6.78235738 373.01571604 -21.07352675 382.60748126 -36 391 C-36.63663574 391.36544922 -37.27327148 391.73089844 -37.92919922 392.10742188 C-64.71708772 407.4072107 -94.53208048 415.9802445 -125 420 C-125.76183594 420.103125 -126.52367187 420.20625 -127.30859375 420.3125 C-189.31755749 427.64464098 -252.27474031 408.19521464 -301.125 370.0625 C-308.80723786 363.8151264 -316.0184814 357.01513747 -323 350 C-324.13308594 348.91912109 -324.13308594 348.91912109 -325.2890625 347.81640625 C-332.28121633 341.06979628 -338.17613286 333.75595576 -344 326 C-344.41749512 325.4539209 -344.83499023 324.9078418 -345.26513672 324.34521484 C-382.17612443 275.92608102 -397.16536749 212.40479893 -389.875 152.3125 C-383.10772739 103.45312718 -362.25478957 58.59642938 -329.0234375 22.24609375 C-327.42588072 20.47274404 -325.91616508 18.68316018 -324.4375 16.8125 C-321.89965666 13.88421922 -319.21470196 11.46219166 -316.265625 8.9609375 C-314.70161608 7.60726082 -313.17176524 6.21345491 -311.671875 4.7890625 C-299.73570873 -6.52466565 -286.08122721 -15.90927654 -271.78271484 -23.99121094 C-270.05091536 -24.97118841 -268.33185213 -25.97356727 -266.61328125 -26.9765625 C-240.42263166 -41.90868721 -210.72342412 -50.07846878 -181 -54 C-180.23816406 -54.103125 -179.47632813 -54.20625 -178.69140625 -54.3125 C-115.2025174 -61.81963213 -48.5203198 -41.42182207 0 0 Z M-269.81640625 72.84375 C-271.63103994 74.83766075 -273.32123351 76.88964779 -275 79 C-275.42893555 79.53834473 -275.85787109 80.07668945 -276.29980469 80.63134766 C-304.10964847 115.83141735 -317.42176412 158.17952712 -312.22607422 203.08691406 C-307.84963753 235.50541448 -294.31266888 265.93229279 -271.953125 289.89453125 C-270.35939276 291.61257461 -268.88541074 293.34865335 -267.4375 295.1875 C-242.99182971 323.39404265 -202.60041507 340.04937708 -166 343 C-119.81297574 345.51174706 -77.61917617 330.63624478 -43.125 299.875 C-38.75565654 295.80113732 -34.71858385 291.67457605 -31 287 C-30.57106445 286.46165527 -30.14212891 285.92331055 -29.70019531 285.36865234 C-1.84196956 250.10734358 11.41836919 207.80808998 6.2265625 162.84155273 C0.99617631 124.28561562 -18.17188245 85.52349447 -49 61 C-49.80751709 60.35659668 -49.80751709 60.35659668 -50.63134766 59.70019531 C-117.25052047 7.06766349 -209.96091915 12.08721255 -269.81640625 72.84375 Z " fill="#4388B9" transform="translate(409,73)"/>
<path d="M0 0 C6.44254545 6.50559449 11.86479909 13.45363443 16.75 21.1875 C17.14026367 21.80318848 17.53052734 22.41887695 17.93261719 23.05322266 C36.22511684 52.4524214 42.01616232 88.306307 34.74609375 122.13671875 C26.71329922 156.14725472 6.4563199 186.42310077 -23.25 205.1875 C-23.86568848 205.57776367 -24.48137695 205.96802734 -25.11572266 206.37011719 C-55.56047501 225.31317161 -91.97072084 230.31611563 -126.8125 222.5625 C-151.17683433 216.59903912 -171.04090166 204.11769845 -189.25 187.1875 C-189.85585937 186.63578125 -190.46171875 186.0840625 -191.0859375 185.515625 C-214.74366163 163.07966127 -226.91759184 129.84891447 -228.2265625 97.76025391 C-229.03228823 60.89110781 -215.7287632 26.50924463 -190.26855469 -0.19873047 C-183.22226426 -7.37536365 -175.74843248 -13.44435004 -167.25 -18.8125 C-166.63431152 -19.20276367 -166.01862305 -19.59302734 -165.38427734 -19.99511719 C-112.26331899 -53.04755242 -44.03349787 -43.07430518 0 0 Z " fill="#EFBA1B" transform="translate(351.25,162.8125)"/>
<path d="M0 0 C27.55293979 13.10826878 48.38666052 61.05150662 58.03613281 87.88085938 C62.94034738 102.28298498 66.35882679 117.02880436 69 132 C69.13277344 132.73331543 69.26554687 133.46663086 69.40234375 134.22216797 C79.24098984 191.49911749 63.15114449 255.83877042 29.875 303 C23.392455 312.02114971 16.52071358 320.55296091 9.0234375 328.75390625 C7.42588072 330.52725596 5.91616508 332.31683982 4.4375 334.1875 C1.89965666 337.11578078 -0.78529804 339.53780834 -3.734375 342.0390625 C-5.29838392 343.39273918 -6.82823476 344.78654509 -8.328125 346.2109375 C-20.78235738 358.01571604 -35.07352675 367.60748126 -50 376 C-50.63663574 376.36544922 -51.27327148 376.73089844 -51.92919922 377.10742188 C-78.71708772 392.4072107 -108.53208048 400.9802445 -139 405 C-139.76183594 405.103125 -140.52367187 405.20625 -141.30859375 405.3125 C-203.31755749 412.64464098 -266.27474031 393.19521464 -315.125 355.0625 C-320.98169486 350.30332839 -326.50933232 345.17309482 -332 340 C-332.91458984 339.15888672 -332.91458984 339.15888672 -333.84765625 338.30078125 C-335 337 -335 337 -335 335 C-333.63122559 333.65122986 -333.63122559 333.65122986 -331.67773438 332.04663086 C-326.21833297 327.40034612 -321.20836988 322.33360739 -316.15625 317.25390625 C-315.13657291 316.23235953 -314.11667144 315.21103674 -313.09655762 314.18992615 C-310.43774939 311.52733563 -307.78196042 308.86175401 -305.12683105 306.19549561 C-302.40671607 303.46507329 -299.68369815 300.73754926 -296.9609375 298.00976562 C-291.63781137 292.675978 -286.31787782 287.33902084 -281 282 C-277.60079873 283.29217276 -275.45263784 284.24571374 -273.0625 287 C-247.63281578 313.41405909 -206.17650141 326.61579807 -170.34692383 327.35327148 C-126.0177524 327.64106026 -84.83860116 310.87207219 -53 280 C-23.09967659 249.63248403 -7.33612623 207.64980176 -7.64868164 165.3581543 C-8.5771499 123.18887268 -25.59012691 85.71123153 -54 55 C-48.68985746 48.55309361 -42.82873116 42.70050563 -36.9140625 36.81640625 C-35.84624655 35.75045891 -34.77865378 34.68428795 -33.71127319 33.61790466 C-30.92207682 30.83249861 -28.129889 28.05011071 -25.33703613 25.26837158 C-22.47936425 22.42098936 -19.62457498 19.57072014 -16.76953125 16.72070312 C-11.18248158 11.14432919 -5.59226366 5.57114506 0 0 Z " fill="#DB5A4F" transform="translate(423,88)"/>
<path d="M0 0 C6.44254545 6.50559449 11.86479909 13.45363443 16.75 21.1875 C17.14026367 21.80318848 17.53052734 22.41887695 17.93261719 23.05322266 C36.22511684 52.4524214 42.01616232 88.306307 34.74609375 122.13671875 C26.71329922 156.14725472 6.4563199 186.42310077 -23.25 205.1875 C-23.86568848 205.57776367 -24.48137695 205.96802734 -25.11572266 206.37011719 C-55.56047501 225.31317161 -91.97072084 230.31611563 -126.8125 222.5625 C-151.17683433 216.59903912 -171.04090166 204.11769845 -189.25 187.1875 C-189.85585937 186.63578125 -190.46171875 186.0840625 -191.0859375 185.515625 C-214.74366163 163.07966127 -226.91759184 129.84891447 -228.2265625 97.76025391 C-229.03228823 60.89110781 -215.7287632 26.50924463 -190.26855469 -0.19873047 C-183.22226426 -7.37536365 -175.74843248 -13.44435004 -167.25 -18.8125 C-166.63431152 -19.20276367 -166.01862305 -19.59302734 -165.38427734 -19.99511719 C-112.26331899 -53.04755242 -44.03349787 -43.07430518 0 0 Z M-103.96875 -3.76171875 C-124.72105049 -2.64083832 -145.22933993 7.06759264 -160.25 21.1875 C-161.09691406 21.95578125 -161.94382812 22.7240625 -162.81640625 23.515625 C-181.18290633 40.90070905 -191.81509852 65.26836116 -192.83911133 90.48217773 C-193.04575677 106.41917991 -189.25804223 121.87678314 -182.25 136.1875 C-181.81042969 137.1053125 -181.37085938 138.023125 -180.91796875 138.96875 C-169.52272025 161.31976083 -148.65145284 177.68880739 -125.20703125 185.90332031 C-117.32981438 188.42201785 -109.50246931 189.89692009 -101.25 190.1875 C-100.23164063 190.25066406 -99.21328125 190.31382812 -98.1640625 190.37890625 C-72.26452944 191.31467027 -47.47684315 180.9370772 -28.50390625 163.69140625 C-9.94552888 145.95670167 0.77895529 122.27468287 1.70703125 96.60620117 C1.74847076 94.46570943 1.75818087 92.32833236 1.75 90.1875 C1.75 88.99769531 1.75 87.80789062 1.75 86.58203125 C0.98142422 65.71039518 -7.98531968 44.42710451 -22.25 29.1875 C-23.13171875 28.21554688 -24.0134375 27.24359375 -24.921875 26.2421875 C-41.63499647 8.34110288 -66.02611747 -2.97341627 -90.609375 -3.9453125 C-95.06433722 -3.93504761 -99.51483215 -3.84490974 -103.96875 -3.76171875 Z " fill="#FDEC31" transform="translate(351.25,162.8125)"/>
<path d="M0 0 C25.74 0 51.48 0 78 0 C78.99 9.24 79.98 18.48 81 28 C87.28935648 60.56988175 102.54761735 88.72884892 125 113 C119.75816111 119.34535495 114.01512384 125.148606 108.203125 130.96484375 C107.16266817 132.00851902 106.12228448 133.05226722 105.08197021 134.09608459 C102.91529826 136.26870733 100.74660726 138.4392912 98.57666016 140.60864258 C95.79173664 143.39346367 93.01380323 146.18514969 90.23750687 148.97856808 C88.09799881 151.12915819 85.95399831 153.27522495 83.80867767 155.42001534 C82.78157745 156.44829754 81.75610284 157.4782061 80.73227692 158.50974846 C79.30834374 159.94342212 77.87748808 161.37021043 76.44628906 162.79663086 C75.22767181 164.01738564 75.22767181 164.01738564 73.98443604 165.26280212 C72 167 72 167 70 167 C69.67 167.66 69.34 168.32 69 169 C68.61070313 168.55011719 68.22140625 168.10023438 67.8203125 167.63671875 C67.26085937 166.99347656 66.70140625 166.35023438 66.125 165.6875 C65.48046875 164.94628906 64.8359375 164.20507812 64.171875 163.44140625 C62.73007112 161.82067347 61.26112561 160.2236652 59.765625 158.65234375 C48.46975821 146.71047151 39.08717642 133.07495181 31.00878906 118.78271484 C30.02881159 117.05091536 29.02643273 115.33185213 28.0234375 113.61328125 C13.08714883 87.41532816 4.9383112 57.72699771 1 28 C0.89397461 27.24831543 0.78794922 26.49663086 0.67871094 25.72216797 C-0.38077648 17.0709179 0 8.88471541 0 0 Z " fill="#DAD6DB" transform="translate(18,256)"/>
<path d="M0 0 C21.16797922 0 21.16797922 0 29.5625 1.125 C30.55934814 1.25551758 31.55619629 1.38603516 32.58325195 1.52050781 C80.80443104 8.31084479 124.82199297 29.21212451 160.7265625 61.9453125 C163.42157001 64.38100658 166.18567675 66.70410471 169 69 C150.66666667 87.33333333 132.33333333 105.66666667 114 124 C110.60079873 122.70782724 108.45263784 121.75428626 106.0625 119 C78.76591658 90.64677464 37.34768182 81.3952438 0 78 C0 52.26 0 26.52 0 0 Z " fill="#519FD7" transform="translate(256,18)"/>
<path d="M0 0 C2.97 0 5.94 0 9 0 C9 3.63 9 7.26 9 11 C9.94875 10.9175 10.8975 10.835 11.875 10.75 C19.19841828 10.77964947 26.22886464 14.30794529 31.53125 19.22265625 C37.57190114 26.53248676 38 34.79572373 38 44 C31.4 44 24.8 44 18 44 C17.87625 42.453125 17.7525 40.90625 17.625 39.3125 C17.19433241 33.86829261 17.19433241 33.86829261 15 29 C12.68456957 28.27359045 10.35072615 27.60247444 8 27 C7.79538369 31.55520353 7.68507584 36.09994355 7.65820312 40.65966797 C7.6362629 42.20613119 7.58949589 43.75246319 7.51660156 45.29736328 C7.28111408 50.50836496 7.3626863 55.00978096 9 60 C11.89333922 63.10723243 15.54518288 64.74794525 19.39990234 66.38378906 C28.07758771 70.27950838 35.16863196 77.6523692 39.03125 86.33203125 C41.9322961 97.31623403 41.73494453 110.38678072 36.546875 120.6171875 C32.46325966 126.90760507 27.25562128 131.72323608 20 134 C16.30620886 134.57654412 12.74448616 134.81277569 9 135 C9 138.63 9 142.26 9 146 C6.03 146 3.06 146 0 146 C0 142.37 0 138.74 0 135 C-0.94875 135.0825 -1.8975 135.165 -2.875 135.25 C-9.45195833 135.23665931 -16.75984959 132.16201661 -21.62109375 127.7578125 C-27.31232159 120.50270619 -30.17183228 112.38901391 -30.0625 103.3125 C-30.041875 100.899375 -30.02125 98.48625 -30 96 C-23.73 96 -17.46 96 -11 96 C-10.731875 98.02125 -10.46375 100.0425 -10.1875 102.125 C-9.20840904 108.98597294 -9.20840904 108.98597294 -6 115 C-3.69 115.99 -1.38 116.98 1 118 C1 105.79 1 93.58 1 81 C-0.98 80.34 -2.96 79.68 -5 79 C-16.89573445 71.44566008 -24.55630011 63.33109968 -29 50 C-29.77016734 38.05609334 -29.43494244 29.32445299 -21.75 19.6875 C-17.52840217 15.12016786 -12.8156686 12.9385562 -7 11 C-4.66700175 10.96045766 -2.33291811 10.95598268 0 11 C0 7.37 0 3.74 0 0 Z " fill="#E6E6E4" transform="translate(251,183)"/>
<path d="M0 0 C5.80076282 2.32030513 8.4433193 4.3090496 11 10 C11.88522873 15.84384079 12.47295865 22.51591515 9.25 27.75 C7.1672084 29.8327916 5.7863708 31.10117071 3 32 C2.01 32 1.02 32 0 32 C0 21.44 0 10.88 0 0 Z " fill="#EEBC26" transform="translate(259,269)"/>
<path d="M0 0 C0 9.24 0 18.48 0 28 C-8.66585721 20.57212239 -8.66585721 20.57212239 -9.3359375 15.4140625 C-9.42205802 9.26505751 -9.16126213 5.65082238 -5 1 C-3 0 -3 0 0 0 Z " fill="#EEBA1D" transform="translate(251,210)"/>
</svg>
